<?xml version="1.0" encoding="UTF-8" standalone="no"?>
<!-- Created with Inkscape (http://www.inkscape.org/) -->

<svg
   width="120"
   height="120"
   viewBox="0 0 31.749999 31.75"
   version="1.1"
   id="svg6732"
   inkscape:export-filename="restart.png"
   inkscape:export-xdpi="96"
   inkscape:export-ydpi="96"
   inkscape:version="1.2.1 (9c6d41e410, 2022-07-14)"
   sodipodi:docname="reset.svg"
   xmlns:inkscape="http://www.inkscape.org/namespaces/inkscape"
   xmlns:sodipodi="http://sodipodi.sourceforge.net/DTD/sodipodi-0.dtd"
   xmlns="http://www.w3.org/2000/svg"
   xmlns:svg="http://www.w3.org/2000/svg">
  <sodipodi:namedview
     id="namedview6734"
     pagecolor="#505050"
     bordercolor="#ffffff"
     borderopacity="1"
     inkscape:showpageshadow="0"
     inkscape:pageopacity="0"
     inkscape:pagecheckerboard="1"
     inkscape:deskcolor="#505050"
     inkscape:document-units="mm"
     showgrid="false"
     inkscape:zoom="1.9099422"
     inkscape:cx="-134.03547"
     inkscape:cy="43.980388"
     inkscape:window-width="1920"
     inkscape:window-height="1009"
     inkscape:window-x="1912"
     inkscape:window-y="-8"
     inkscape:window-maximized="1"
     inkscape:current-layer="layer1" />
  <defs
     id="defs6729">
    <inkscape:path-effect
       effect="fillet_chamfer"
       id="path-effect7089"
       is_visible="true"
       lpeversion="1"
       nodesatellites_param="F,0,0,1,0,6.024171,0,1 @ F,0,0,1,0,4.5867255,0,1 @ F,0,0,1,0,7.0438998,0,1"
       unit="px"
       method="auto"
       mode="F"
       radius="0"
       chamfer_steps="1"
       flexible="false"
       use_knot_distance="true"
       apply_no_radius="true"
       apply_with_radius="true"
       only_selected="false"
       hide_knots="false" />
    <inkscape:path-effect
       effect="fillet_chamfer"
       id="path-effect7087"
       is_visible="true"
       lpeversion="1"
       nodesatellites_param="F,0,0,1,0,0,0,1 @ F,0,0,1,0,0,0,1 @ F,0,0,1,0,0,0,1 @ F,0,0,1,0,0,0,1 @ F,0,0,1,0,0,0,1 @ F,0,0,1,0,0.37069246,0,1 @ F,0,0,1,0,1.8433237,0,1 @ F,0,0,1,0,0,0,1 @ F,0,0,1,0,0,0,1 @ F,0,0,1,0,0,0,1"
       unit="px"
       method="auto"
       mode="F"
       radius="8"
       chamfer_steps="6"
       flexible="false"
       use_knot_distance="true"
       apply_no_radius="true"
       apply_with_radius="true"
       only_selected="true"
       hide_knots="false" />
  </defs>
  <g
     inkscape:label="Layer 1"
     inkscape:groupmode="layer"
     id="layer1">
    <path
       id="circle7082"
       style="fill:#000000;stroke:none;stroke-width:4.4522;stroke-linecap:round;stroke-linejoin:bevel"
       d="m 15.417922,2.9587339 a 0.45730107,0.45730107 0 0 0 -0.228926,0.061495 L 8.5516744,6.8525531 a 0.6006158,0.6006158 0 0 0 0,1.0402465 l 6.2699016,3.6199344 a 0.70228377,0.70228377 0 0 0 1.053683,-0.608232 V 9.1547381 c 4.438341,2.74e-5 8.036175,3.5978599 8.036202,8.0362019 -2.7e-5,4.438342 -3.597861,8.036175 -8.036202,8.036202 -4.438342,-2.7e-5 -8.0366926,-3.59786 -8.0367194,-8.036202 6.868e-4,-0.07692 0.00279,-0.153622 0.00568,-0.230477 0.0077,-0.204565 -0.129334,-0.437915 -0.3162597,-0.521415 L 6.1600891,15.828232 C 5.2305733,15.413018 4.3078548,15.89016 4.279067,16.90672 c -0.00268,0.09463 -0.00429,0.18951 -0.00465,0.28422 8.17e-5,6.406777 5.1940662,11.600244 11.6008429,11.600326 6.406771,-8.2e-5 11.600243,-5.19355 11.600325,-11.600326 C 27.475502,10.784164 22.282034,5.5906963 15.875259,5.5906146 V 3.4160703 A 0.45730107,0.45730107 0 0 0 15.417922,2.9587339 Z" />
    <path
       sodipodi:type="star"
       style="fill:none;stroke:none;stroke-width:4.99999;stroke-linecap:round;stroke-linejoin:bevel"
       id="path6967"
       inkscape:flatsided="true"
       sodipodi:sides="3"
       sodipodi:cx="-12.675448"
       sodipodi:cy="5.7489743"
       sodipodi:r1="14.36605"
       sodipodi:r2="7.1830244"
       sodipodi:arg1="3.0788731"
       sodipodi:arg2="4.1260706"
       inkscape:rounded="0"
       inkscape:randomized="0"
       d="M -27.013251,6.6494159 -6.2863523,-7.118148 -4.7267417,17.715655 Z"
       inkscape:transform-center-x="3.1945478"
       inkscape:transform-center-y="-0.45022093" />
  </g>
</svg>
